<?xml version="1.0" encoding="utf-8"?>
<!-- Generator: Adobe Illustrator 26.4.1, SVG Export Plug-In . SVG Version: 6.00 Build 0)  -->
<svg version="1.1" id="レイヤー_1" xmlns="http://www.w3.org/2000/svg" xmlns:xlink="http://www.w3.org/1999/xlink" x="0px"
	 y="0px" width="300px" height="300px" viewBox="0 0 300 300" style="enable-background:new 0 0 300 300;" xml:space="preserve">
<style type="text/css">
	.st0{fill:none;stroke:#333333;stroke-width:8;stroke-linecap:round;stroke-linejoin:round;stroke-miterlimit:10;}
</style>
<g>
	<g>
		<path class="st0" d="M225.72,174.46c0,47.31-33.9,71.67-75.72,71.67s-75.72-24.35-75.72-71.67s33.9-92.49,75.72-92.49
			S225.72,127.15,225.72,174.46z"/>
		<path class="st0" d="M156.22,81.12c3.02-1.33,6.35-3.24,9.34-5.94c8.14-7.35,10.68-17.8,10.68-17.8s-10.65,1.47-18.79,8.82
			c-2.16,1.96-3.93,7.13-5.36,9.27c-1.77-2.89-4.07-8.94-7.04-11.62c-9.21-8.32-21.27-9.98-21.27-9.98s2.87,11.83,12.08,20.15
			c3.79,3.42,8.06,5.72,11.78,7.23"/>
	</g>
</g>
</svg>