<?xml version="1.0" encoding="utf-8"?>
<!-- Generator: Adobe Illustrator 27.0.0, SVG Export Plug-In . SVG Version: 6.00 Build 0)  -->
<svg version="1.1" id="レイヤー_1" xmlns="http://www.w3.org/2000/svg" xmlns:xlink="http://www.w3.org/1999/xlink" x="0px"
	 y="0px" width="300px" height="300px" viewBox="50 50 200 200" style="enable-background:new 0 0 300 300;" xml:space="preserve">
<style type="text/css">
	.st0{fill:none;stroke:#333333;stroke-width:8;stroke-linecap:round;stroke-linejoin:round;stroke-miterlimit:10;}
	.st1{fill:none;stroke:#333333;stroke-width:3;stroke-linecap:round;stroke-linejoin:round;stroke-miterlimit:10;}
</style>
<g>
	<rect x="86.61" y="97.97" class="st0" width="126.77" height="9.88"/>
	<polygon class="st0" points="216.8,202.03 167.04,202.03 150,165.45 132.96,202.03 83.2,202.03 86.61,107.85 213.39,107.85 	"/>
	<g>
		<g>
			<path class="st1" d="M150,117.83l-5.31,3.86c-1.55,0.79-3.12-1.15-3.12-3.86v0c0-2.71,1.57-4.65,3.12-3.86L150,117.83z"/>
			<path class="st1" d="M150,117.83l5.31,3.86c1.55,0.79,3.12-1.15,3.12-3.86v0c0-2.71-1.57-4.65-3.12-3.86L150,117.83z"/>
		</g>
		<g>
			<line class="st1" x1="149.97" y1="118.45" x2="141.41" y2="135.91"/>
			<line class="st1" x1="158.59" y1="135.91" x2="150.03" y2="118.45"/>
		</g>
	</g>
</g>
</svg>